<svg version="1.2" xmlns="http://www.w3.org/2000/svg" viewBox="0 0 1024 1024" width="1024" height="1024">
	<title>1f5fb-svg</title>
	<style>
		.s0 { fill: #4b545d } 
		.s1 { fill: #292f33 } 
		.s2 { fill: #e1e8ed } 
		.s3 { fill: #aab8c2 } 
		.s4 { fill: #ccd6dd } 
	</style>
	<path id="Layer" class="s0" d="m717 483.6h-404.1c0 0-116.9 94.7-135.3 110.8-99.4 86.5-177.6 78.7-177.6 117.4v312.2h1024v-256z"/>
	<path id="Layer" class="s1" d="m111.2 1024c-2.4-18.3-7.7-84.6 32.8-143.1 11.8-17.1-0.9-41.9 64.9-142.2 18.1-27.6 86.8-83.3 105.5-104.9 18.8-21.6 37.7-96.9 37.7-96.9l-43-0.8c0 0-24.5 64.6-44.4 74.6-53.1 26.6-108.2 88.8-118.6 106.7-14.4 24.8-109.2 154.6-126 182.2l-20.1 33.4v91zm781.2-403.9l-262.4-55.8 37 106 59.7 29.4c36.8 23.8 82.3 37.3 88.2 104.3 1.6 18-11.1 82-21.5 121.2-8.7 33 1.7 59.1-3.2 98.8h97.9c-20.5-41.3-32.9-90.6-32.6-96.7 0.5-8.8 8.9-91.7 13.7-138.2 21.7 39.2 59.7 110.7 61.1 134.1 1.1 18.2-0.3 65.6-1.6 100.8h95.3v-328.9c0-35.4-89.8-36.6-131.6-75zm-446.9 208.9c-14.9 36.9-6.8 37-8.7 59.7-3.8 46.5 21.6 75.5 21.6 75.5 0 0 19-39.2 18.6-54.9-1.9-70.9 27.5-96 23.7-115.1 0 0-40.2-2-55.2 34.8zm-140.6 28.5c8.5-14.5 31.9-15.5 44.9-38.2 13-22.8 12.7-62.1 26.3-103.4 13.6-41.2 74.2-67.1 74.2-67.1 0 0-51.1-72-92.3-23.1-35.3 42-29.3 119-33.5 140.2-4.3 21.1-52.1 83.4-52.1 83.4 0 0-10.3 67.8-8.3 86.7 2.1 18.9 24.3-50.5 40.8-78.5zm357.4-46.6c-10.7-17.3-30.2-39.5-33.8-60.1-4.2-23.8-5.8-36.2-13.7-39.2-8-3-22.3 3.3-32.9 17.5-9.9 13.3-1.8 52-1.8 52 0 0 24 20.8 39.1 30.3 12.9 8.2 21.7 85.7 24.3 94.8 2.5 9.1 29.6-77.9 18.8-95.3z"/>
	<path id="Layer" class="s2" d="m456.9 281.8c-21.7 0-142.2 158.9-142.2 158.9l-4.5 7.3-151.1 162.6c0 0 6.9 21 19.8 36.1 20.8 24 58.6-20.2 84.3-28.6 41.4-13.4 27.8 62.1 54.5 65.1 36.2 4.2 73.5-62.1 99.9-60 26.3 2.1 55.5 75.4 83.5 75.4 41.8 0 37.2-55.4 94.4-55.4 27.1 0 32.5 31.8 71.6 27.1 30.5-3.7 74.5-68.4 89.1-73.9 32.7-12.3 73.9 41.2 98.2 38.6 24.2-2.6 18.6-5.3 18.6-5.3l-316.2-349.7h-18.3c-14.6 0-21-0.7-37.7-0.7-11.3 0-37.8 2.5-43.9 2.5z"/>
	<path id="Layer" class="s3" d="m447.2 378.1c0 0-52.3 99.1-57.6 115.2-5.3 16.1-17.9 69.6-17.9 69.6 0 0 25.2-16.7 33.7-29.5 8.5-12.8 21.7-54.3 31.2-70.4 9.6-16.2 27.1-33.2 33.8-45.4 6.6-12.2 4-72.5 4-72.5zm-115 35.3c-13.6 14.6-53.6 68.6-53.6 68.6l-120 128c0 0 15.1 43.3 33.3 43.8 18.2 0.5 25.3-42.1 25.8-62.3 0.5-20.2 54.9-53.6 61.6-72.9 6.8-19.4 29.9-25.9 44.4-43.2 14.4-17.3 16.7-41.1 36.7-60.2 50.6-48.4 23-60.9 23-60.9 0 0-37.6 44.6-51.2 59.1zm213.8 112.3c-2.9-31.7-31.3-102.2-31.3-102.2 0 0-11.4 61.3-12.5 81.8-1.1 20.6 5.4 45.8 11.6 68.4 6.1 22.5 23.2 52.3 23.2 52.3 0 0 11.9-68.6 9-100.3z"/>
	<path id="Layer" class="s4" d="m580.7 280h-39.7c-5.4 0 4.7 33 0.6 58.1-4.6 27.4 51.8 87.2 63.6 150.9 2.9 15.1 20.4 94.5 38.5 138.1 17 41 23.3 43.2 23.3 43.2 0 0 56.1-6.4 80.9-60.4 14.5-31.8 121.5 70.6 144.5 10.2 0 0-90.1-66.1-175.5-183.9-78.4-108.1-122-156.2-136.2-156.2z"/>
	<path id="Layer" class="s3" d="m634 468.6c4.5 21.3 18.8 34.8 17 80.5-1.8 44.3 86.6 80.3 78.3 88.7-29.3 29.3-62.2 32.5-62.2 32.5-9.6-5.1-37.4-53.3-43.7-80.6-6.4-27.3-17.8-108-25.4-124.5-7.7-16.6-24.1-36.3-33.3-55.6-9.1-19.3-11.8-35.4-11.8-35.4 0 0 27.3 10.6 46 26.6 18.7 15.9 30.6 46.5 35.1 67.8z"/>
</svg>