<svg version="1.2" xmlns="http://www.w3.org/2000/svg" viewBox="0 0 1024 1024" width="1024" height="1024">
	<title>major-activity-optimized-svg</title>
	<defs>
		<linearGradient id="g1" x2="1" gradientUnits="userSpaceOnUse" gradientTransform="matrix(0,-744.732,1024.044,0,512,1024)">
			<stop offset="0" stop-color="#4b545d"/>
			<stop offset=".547" stop-color="#4b545d"/>
			<stop offset="1" stop-color="#7c3b3c"/>
		</linearGradient>
		<linearGradient id="g2" x2="1" gradientUnits="userSpaceOnUse" gradientTransform="matrix(0,-669.639,1024.06,0,512,1024)">
			<stop offset="0" stop-color="#1d2226"/>
			<stop offset=".55" stop-color="#1d2226"/>
			<stop offset="1" stop-color="#45373c"/>
		</linearGradient>
	</defs>
	<style>
		.s0 { fill: #f3f7f9 } 
		.s1 { fill: #ccd6dd } 
		.s2 { fill: url(#g1) } 
		.s3 { opacity: .5;fill: url(#g2) } 
	</style>
	<path id="Layer copy" class="s0" d="m564.4 333c-0.1-0.5-9.7-43.6-6-88.5 1.4-16.6 7.4-32.3 13.8-47.7 2-5 3.5-10.3 4.2-15.8 0.3-1 0.4-2 0.6-3.2q0.8-7.8-0.2-15.4c-4-29.5-27.6-53.6-58.7-56.9q-13.4-1.3-25.6 2.6c-7.7-13.9-21.6-24-38.5-25.6-27.2-2.8-51.4 17-54.3 44.2 0 1 0.2 2 0.1 3-24.2 5.6-42.3 29.4-37 57.6 4.5 24.3 26.4 40 51.1 39.9h0.7c29.8-0.4 58.9 10.2 77.6 33.4 15.4 19.1 33.3 44.9 53.7 79.8 2.4 4.3 7.8 6.1 12.4 4.2 4.8-1.8 7.3-6.8 6.1-11.6z"/>
	<path id="Layer" class="s1" d="m547.3 283.3h-28.6c-3.7 0 3 44 4 61.3 2 36 43.6 57.4 49.3 102.7 1.3 10.4 7.8 44.3 15.3 75.7 8 33.3 40.7 66.6 40.7 66.6 0 0 26.3-1.4 61.7-44.3 29.6-36 74 34.3 105 11.7 0 0-83-90.7-149.7-167.4-59.9-68.9-87.9-106.3-97.7-106.3z"/>
	<path id="Layer copy 5" fill-rule="evenodd" class="s0" d=""/>
	<path id="Layer copy 2" class="s0" d="m511.3 191.6c6.1 0.6 12.4 0.4 18.7-0.7 1.2 0 15.1-3.4 20.5-5.9 30.9-14.4 42.3-15 51-31 8.7-16.2 21.5-57.6 17.8-76.7-5.5-31-34.9-51-65.6-44.9-1.1 0.2-2.1 0.8-3.3 1-13.9-24.7-45.6-36.6-74.8-21.2-25.2 13.3-35.4 42.8-27.4 70l0.2 0.8c20.1 89.6 44 106.8 62.9 108.6z"/>
	<path id="Layer copy 3" class="s0" d="m411.3 42.3c-6.1-0.8-12.4-0.7-18.7 0.2-1.2-0.1-15.2 3-20.7 5.3-31.3 13.5-42.7 13.8-51.8 29.6-9.2 15.9-23.1 57-20 76.2 4.7 31.1 33.5 51.9 64.4 46.7 1.1-0.2 2.1-0.8 3.3-1 13.2 25.1 44.6 37.9 74.2 23.3 25.5-12.6 36.6-41.7 29.3-69.2l-0.2-0.8c-17.6-90.2-41-108-59.8-110.3z"/>
	<path id="Layer copy 4" class="s0" d="m554.9 175.2c6.1 3.3 12.9 6.1 20.2 8 1.3 0.6 18 4.1 25.1 4.5 40.9 1.7 53.3 6.5 71.6-3.6 18.3-10.2 55.1-40.9 62-59.5 11.5-29.9-8.5-61.4-44.5-70.4-1.3-0.3-2.7-0.2-4-0.5-0.9-28.4-27.9-53.8-67.5-53.8-34.2 0-61.6 21.2-68.4 49.1l-0.2 0.7c-29.1 88.7-13.3 115 5.7 125.5z"/>
	<path id="Layer" fill-rule="evenodd" class="s0" d="m674.6 69.4l0.8 0.1c28.4 0.9 53.2 19.8 58 47.8 5.5 32.5-15.6 59-43.5 64.5-0.1 1.1 0.1 2.3 0 3.4-3.8 31.1-32 52.8-63.1 48.4-19.3-2.5-54.7-27.6-67.3-40.9-12.6-13.2-9.6-24.2-13.6-58.1-0.7-5.9 0.4-20.2 0.8-21.3q1.3-9.6 5.1-18c7.6-17.4 31.4-34.8 122.8-25.9zm228.2 579.5c-4.9-38.3 10.3-32.1 14.6-53.9 5.1-26.6-6.6-44.5-17.5-66.9l-0.4 0.4c-8.9-18.8-3.1-55.3 7.7-71.8 12.6-19 21.2-6.9 32.8 8.5 0.5-0.5 1-1.2 1.5-1.7 15-12.3 33.9-4.4 42.3 17.8 5.2 13.6 5.1 29.6 0.7 42.8 4.2 4.8 46.7 27.7 12.5 82-2.2 3.5-5 6-7.8 8.4-0.7 0.4-1.2 0.9-1.9 1.2-3.1 2.4-29.1 4.9-32.3 6.7-41.4 23.3-50.6 23.1-39 83.6 0.8 4.4-10.8-38.3-13.2-57.1z"/>
	<path id="Layer copy 6" class="s0" d="m122.8 673.8c10-31.5 2-31.4-33.9-43.6-2.7-0.9-25.3-2.2-28-3.5-0.6-0.1-1-0.4-1.6-0.6-2.5-1.3-4.9-2.6-6.9-4.4-29.6-28.4 7.3-40.3 11-42.8-3.9-6.9-4-15.2 0.6-22.4 7.2-11.6 23.6-15.7 36.6-9.2 0.5 0.2 0.9 0.6 1.4 0.8 10-8 17.5-14.3 28.4-4.4 9.5 8.6 14.5 27.7 6.7 37.5l-0.3-0.2c-9.5 11.7-19.7 21-15.2 34.9 3.7 11.4 16.9 8.2 12.6 28.2-2.1 9.8-12.1 32-11.4 29.7zm0 0c10-31.5 2-31.4-33.9-43.6-2.7-0.9-25.3-2.2-28-3.5-0.6-0.1-1-0.4-1.6-0.6-2.5-1.3-4.9-2.6-6.9-4.4-29.6-28.4 7.3-40.3 11-42.8-3.9-6.9-4-15.2 0.6-22.4 7.2-11.6 23.6-15.7 36.6-9.2 0.5 0.2 0.9 0.6 1.4 0.8 10-8 17.5-14.3 28.4-4.4 9.5 8.6 14.5 27.7 6.7 37.5l-0.3-0.2c-9.5 11.7-19.7 21-15.2 34.9 3.7 11.4 16.9 8.2 12.6 28.2-2.1 9.8-12.1 32-11.4 29.7z"/>
	<path id="Layer" class="s2" d="m717 483.6h-404.1c0 0-116.9 94.7-135.3 110.8-99.4 86.5-177.6 78.7-177.6 117.4v312.2h1024v-317.1c0-43-25-39-132-83-77-67-175-140.3-175-140.3zm-260.1-201.8c-21.7 0-142.2 158.9-142.2 158.9l-4.5 7.3-151.1 162.6c0 0 6.9 21 19.8 36.1 20.8 24 58.6-20.2 84.3-28.6 41.4-13.4 27.8 62.1 54.5 65.1 36.2 4.2 73.5-62.1 99.9-60 26.3 2.1 55.5 75.4 83.5 75.4 41.8 0 37.2-55.4 94.4-55.4 27.1 0 32.5 31.8 71.6 27.1 30.5-3.7 74.5-68.4 89.1-73.9 32.7-12.3 73.9 41.2 98.2 38.6 24.2-2.6 18.6-5.3 18.6-5.3l-316.2-349.7h-18.3c-14.6 0-21-0.7-37.7-0.7-11.3 0-37.8 2.5-43.9 2.5zm123.8-1.8h-39.7c-5.4 0 4.7 33 0.6 58.1-4.6 27.4 51.8 87.2 63.6 150.9 2.9 15.1 20.4 94.5 38.5 138.1 17 41 23.3 43.2 23.3 43.2 0 0 56.1-6.4 80.9-60.4 14.5-31.8 121.5 70.6 144.5 10.2 0 0-90.1-66.1-175.5-183.9-78.4-108.1-122-156.2-136.2-156.2z"/>
	<path id="Layer" fill-rule="evenodd" class="s3" d="m0 1024v-91l20.1-33.4c16.8-27.6 111.6-157.4 126-182.2 10.4-17.9 65.5-80.1 118.6-106.7 19.9-10 141.3-175.8 141.3-175.8 0 0-72.8 177.3-91.6 198.9-18.7 21.6-87.4 77.3-105.5 104.9-65.8 100.3-53.1 125.1-64.9 142.2-40.5 58.5-35.2 124.8-32.8 143.1zm1024-328.9v328.9h-95.3c1.3-35.2 2.7-82.6 1.6-100.8-1.4-23.4-39.4-94.9-61.1-134.1-4.8 46.5-13.2 129.4-13.7 138.2-0.3 6.1 12.1 55.4 32.6 96.7h-97.9c4.9-39.7-5.5-65.8 3.2-98.8 10.4-39.2 23.1-103.2 21.5-121.2-5.9-67-51.4-80.5-88.2-104.3l-59.7-29.4c0 0 32.9-3.2 62.2-32.5 7-7-54-33.5-72.9-67.9l236.1 50.2c41.8 38.4 131.6 39.6 131.6 75zm-357-24.8c-9.6-5.1-37.4-53.3-43.7-80.6-6.3-27.3-17.7-108-25.4-124.5-7.6-16.6-24.1-36.3-33.2-55.6-9.1-19.3-11.9-35.4-11.9-35.4 0 0 27.4 10.6 46 26.6 18.7 15.9 30.7 46.5 35.2 67.8 4.4 21.3 18.7 34.8 16.9 80.5-0.3 7.2 1.8 14.1 5.4 20.8l-26.3-5.6zm-166.3 123.9c3.8 19.1-25.6 44.2-23.7 115.1 0.4 15.7-18.6 54.9-18.6 54.9 0 0-25.4-29-21.6-75.5 1.9-22.7-6.2-22.8 8.7-59.7 15-36.8 55.2-34.8 55.2-34.8zm-236.6 141.8c-2-18.9 8.3-86.7 8.3-86.7 0 0 47.8-62.3 52.1-83.4 4.2-21.2-1.8-98.2 33.5-140.2 41.2-48.9 92.3 23.1 92.3 23.1 0 0-60.6 25.9-74.2 67.1-13.6 41.3-13.3 80.6-26.3 103.4-13 22.7-36.4 23.7-44.9 38.2-16.5 28-38.7 97.4-40.8 78.5zm379.4-29.8c-2.6-9.1-11.4-86.6-24.3-94.8-15.1-9.5-39.1-30.3-39.1-30.3 0 0-8.1-38.7 1.8-52 10.6-14.2 24.9-20.5 32.9-17.5 7.9 3 9.5 15.4 13.7 39.2 3.6 20.6 23.1 42.8 33.8 60.1 10.8 17.4-16.3 104.4-18.8 95.3zm-260.2-551.8c0 0 27.7 12.5-23 60.9-19.9 19.1-22.2 42.9-36.7 60.2-14.5 17.3-37.5 23.8-44.3 43.2-6.8 19.3-61.1 52.7-61.6 72.9-0.5 20.2-7.6 62.8-25.8 62.3-18.3-0.5-33.3-43.9-33.3-43.9l119.9-128c0 0 40.1-54 53.7-68.5 13.6-14.5 51.1-59.1 51.1-59.1zm153.7 271.7c0 0-17.2-29.8-23.3-52.3-6.1-22.6-12.7-47.9-11.6-68.4 1.1-20.5 12.6-81.8 12.6-81.8 0 0 28.3 70.5 31.2 102.2 3 31.7-8.9 100.3-8.9 100.3z"/>
	<path id="Layer" class="s0" d="m638.1 773.4c-14.6-75.3 0.2-73.6 68.1-95.4 5.2-1.7 47.1-0.5 52.3-3 1-0.2 1.9-0.7 3-1.2 4.8-2.4 9.5-5 13.2-8.9 58.4-60.7-8.3-95.2-14.8-101.7 7.9-15.4 9.2-34.8 1.6-52.2-11.9-28.3-41.7-40.9-66.6-28.4-0.9 0.5-1.6 1.3-2.6 1.8-17.6-20.6-30.6-36.6-52-15.5-18.5 18.3-30.2 61.8-17.1 86.1l0.6-0.4c16.1 29 33.8 52.6 23.7 84.1-8.3 25.9-32.2 15.9-26.8 63.3 2.6 23.2 18.4 76.9 17.4 71.4zm0 0c-14.6-75.3 0.2-73.6 68.1-95.4 5.2-1.7 47.1-0.5 52.3-3 1-0.2 1.9-0.7 3-1.2 4.8-2.4 9.5-5 13.2-8.9 58.4-60.7-8.3-95.2-14.8-101.7 7.9-15.4 9.2-34.8 1.6-52.2-11.9-28.3-41.7-40.9-66.6-28.4-0.9 0.5-1.6 1.3-2.6 1.8-17.6-20.6-30.6-36.6-52-15.5-18.5 18.3-30.2 61.8-17.1 86.1l0.6-0.4c16.1 29 33.8 52.6 23.7 84.1-8.3 25.9-32.2 15.9-26.8 63.3 2.6 23.2 18.4 76.9 17.4 71.4zm-248.5-283.2c13.1-46.2 2.7-46.1-44.2-64-3.6-1.3-33-3.2-36.5-5.1-0.7-0.2-1.3-0.5-2.1-0.9-3.2-1.8-6.4-3.7-8.9-6.4-38.6-41.6 9.4-59.1 14.2-62.8-4.9-10.1-5.1-22.3 0.8-32.7 9.5-17 30.8-23.1 47.8-13.7 0.6 0.4 1.1 0.9 1.8 1.3 13.1-11.8 22.8-21 37-6.4 12.3 12.5 18.9 40.5 8.8 54.9l-0.4-0.3c-12.4 17.1-25.7 30.8-19.8 51.2 4.8 16.7 22 11.9 16.4 41.3-2.7 14.4-15.8 47-14.9 43.6zm0 0c13.1-46.2 2.7-46.1-44.2-64-3.6-1.3-33-3.2-36.5-5.1-0.7-0.2-1.3-0.5-2.1-0.9-3.2-1.8-6.4-3.7-8.9-6.4-38.6-41.6 9.4-59.1 14.2-62.8-4.9-10.1-5.1-22.3 0.8-32.7 9.5-17 30.8-23.1 47.8-13.7 0.6 0.4 1.1 0.9 1.8 1.3 13.1-11.8 22.8-21 37-6.4 12.3 12.5 18.9 40.5 8.8 54.9l-0.4-0.3c-12.4 17.1-25.7 30.8-19.8 51.2 4.8 16.7 22 11.9 16.4 41.3-2.7 14.4-15.8 47-14.9 43.6z"/>
</svg>